<mxfile host="app.diagrams.net" modified="2024-02-26T21:19:12.822Z" agent="Mozilla/5.0 (Macintosh; Intel Mac OS X 10.15; rv:109.0) Gecko/20100101 Firefox/115.0" version="23.1.5" etag="Tju9r08-8YhM9UyKJL6K" type="github">
  <diagram name="Page-1" id="97rz5_hRxeU_KVeixRV3">
    <mxGraphModel>
      <root>
        <mxCell id="0" />
        <mxCell id="1" parent="0" />
      </root>
    </mxGraphModel>
  </diagram>
</mxfile>
